<svg width="600" height="400" xmlns="http://www.w3.org/2000/svg">
  <!-- Title -->
  <text x="300" y="30" font-size="20" font-weight="bold" text-anchor="middle" fill="#333">Middleware Layer Architecture</text>

  <!-- Application Layer -->
  <rect x="100" y="60" width="400" height="60" fill="#e3f2fd" stroke="#1976d2" stroke-width="2" rx="5"/>
  <text x="300" y="95" font-size="16" font-weight="bold" text-anchor="middle" fill="#1565c0">Application Layer</text>
  <text x="300" y="110" font-size="12" text-anchor="middle" fill="#555">(Your Robot Code: Nodes, Logic, Algorithms)</text>

  <!-- Middleware Layer -->
  <rect x="100" y="140" width="400" height="60" fill="#fff3e0" stroke="#f57c00" stroke-width="2" rx="5"/>
  <text x="300" y="175" font-size="16" font-weight="bold" text-anchor="middle" fill="#e65100">Middleware Layer (ROS 2)</text>
  <text x="300" y="190" font-size="12" text-anchor="middle" fill="#555">(Communication, Discovery, Serialization)</text>

  <!-- Operating System -->
  <rect x="100" y="220" width="400" height="60" fill="#f3e5f5" stroke="#7b1fa2" stroke-width="2" rx="5"/>
  <text x="300" y="255" font-size="16" font-weight="bold" text-anchor="middle" fill="#6a1b9a">Operating System</text>
  <text x="300" y="270" font-size="12" text-anchor="middle" fill="#555">(Linux, Process Management, Networking)</text>

  <!-- Hardware Layer -->
  <rect x="100" y="300" width="400" height="60" fill="#e8f5e9" stroke="#388e3c" stroke-width="2" rx="5"/>
  <text x="300" y="335" font-size="16" font-weight="bold" text-anchor="middle" fill="#2e7d32">Hardware Layer</text>
  <text x="300" y="350" font-size="12" text-anchor="middle" fill="#555">(Sensors, Motors, CPUs, Network Cards)</text>

  <!-- Arrows -->
  <defs>
    <marker id="arrow2" markerWidth="10" markerHeight="10" refX="9" refY="3" orient="auto">
      <polygon points="0 0, 10 3, 0 6" fill="#666" />
    </marker>
  </defs>

  <line x1="300" y1="120" x2="300" y2="140" stroke="#666" stroke-width="2" marker-end="url(#arrow2)"/>
  <line x1="300" y1="200" x2="300" y2="220" stroke="#666" stroke-width="2" marker-end="url(#arrow2)"/>
  <line x1="300" y1="280" x2="300" y2="300" stroke="#666" stroke-width="2" marker-end="url(#arrow2)"/>

  <!-- Annotation -->
  <text x="550" y="175" font-size="14" fill="#e65100" font-weight="bold">← ROS 2</text>
  <text x="550" y="190" font-size="12" fill="#666">Lives Here</text>
</svg>
